<?xml version="1.0" encoding="UTF-8"?>
<!DOCTYPE svg PUBLIC "-//W3C//DTD SVG 1.1//EN" "http://www.w3.org/Graphics/SVG/1.1/DTD/svg11.dtd">
<!-- Creator: CorelDRAW X6 -->
<svg xmlns="http://www.w3.org/2000/svg" xml:space="preserve" width="1.18055in" height="0.569441in" version="1.1" style="shape-rendering:geometricPrecision; text-rendering:geometricPrecision; image-rendering:optimizeQuality; fill-rule:evenodd; clip-rule:evenodd"
viewBox="0 0 1181 569"
 xmlns:xlink="http://www.w3.org/1999/xlink">
 <defs>
  <style type="text/css">
   <![CDATA[
    .fil0 {fill:#fff;fill-rule:nonzero}
   ]]>
  </style>
 </defs>
 <g id="Layer_x0020_1">
  <metadata id="CorelCorpID_0Corel-Layer"/>
  <path class="fil0" d="M153 292l118 -299 81 1 -13 132 52 -131 76 1 -119 299 -74 -1 11 -144 -57 144 -74 -1zm211 2l119 -299 75 1 -119 299 -75 -1zm287 -16l-6 -150 105 -120 5 -5 -104 275zm159 -13l11 -28 -80 1 27 -72 65 0 20 -53 -65 1 22 -60 65 0 21 -56 -210 0 -76 88 35 -88 -75 0 -114 301 75 0 48 -129 1 129 105 -1 -357 93c-72,19 -130,16 -162,-8 -85,-59 -21,-179 3,-215 -41,43 -83,87 -115,135 -50,75 -72,157 -38,210 61,94 208,50 302,12l863 -356 -371 96z"/>
 </g>
</svg>
